<?xml version="1.0" ?><!DOCTYPE svg  PUBLIC '-//W3C//DTD SVG 1.0//EN'  'http://www.w3.org/TR/2001/REC-SVG-20010904/DTD/svg10.dtd'><svg enable-background="new 0 0 512 512" id="Layer_1" version="1.0" viewBox="0 0 512 512" xml:space="preserve" xmlns="http://www.w3.org/2000/svg" xmlns:xlink="http://www.w3.org/1999/xlink"><g><g><g><g><rect fill="#69BD45" height="48.9" width="114" x="69.3" y="97.1"/><g><path d="M175.8,97.1c0,16.3,0,32.6,0,48.9c2.5-2.5,5-5,7.5-7.5c-38,0-76,0-114,0c2.5,2.5,5,5,7.5,7.5c0-16.3,0-32.6,0-48.9       c-2.5,2.5-5,5-7.5,7.5c38,0,76,0,114,0c9.7,0,9.7-15,0-15c-38,0-76,0-114,0c-4.1,0-7.5,3.4-7.5,7.5c0,16.3,0,32.6,0,48.9       c0,4.1,3.4,7.5,7.5,7.5c38,0,76,0,114,0c4.1,0,7.5-3.4,7.5-7.5c0-16.3,0-32.6,0-48.9C190.8,87.4,175.8,87.4,175.8,97.1z"/></g></g><g><rect fill="#736357" height="40" width="391" x="53" y="448.1"/><g><path d="M436.5,448.1c0,13.3,0,26.6,0,40c2.5-2.5,5-5,7.5-7.5c-35.1,0-70.2,0-105.2,0c-64,0-128,0-192,0c-31.3,0-62.5,0-93.8,0       c2.5,2.5,5,5,7.5,7.5c0-13.3,0-26.6,0-40c-2.5,2.5-5,5-7.5,7.5c35.1,0,70.2,0,105.2,0c64,0,128,0,192,0c31.3,0,62.5,0,93.8,0       c9.7,0,9.7-15,0-15c-35.1,0-70.2,0-105.2,0c-64,0-128,0-192,0c-31.3,0-62.5,0-93.8,0c-4.1,0-7.5,3.4-7.5,7.5       c0,13.3,0,26.6,0,40c0,4.1,3.4,7.5,7.5,7.5c35.1,0,70.2,0,105.2,0c64,0,128,0,192,0c31.3,0,62.5,0,93.8,0       c4.1,0,7.5-3.4,7.5-7.5c0-13.3,0-26.6,0-40C451.5,438.5,436.5,438.5,436.5,448.1z"/></g></g><g><path d="M53,325.2v123h391v-123H53z M134.5,417c0,3.3-2.6,5.9-5.9,5.9H91.5c-3.3,0-5.9-2.7-5.9-5.9V380      c0-3.3,2.6-5.9,5.9-5.9h37.1c3.3,0,5.9,2.7,5.9,5.9V417z M232.2,417c0,3.3-2.6,5.9-5.9,5.9h-37.1c-3.3,0-5.9-2.7-5.9-5.9V380      c0-3.3,2.6-5.9,5.9-5.9h37.1c3.3,0,5.9,2.7,5.9,5.9V417z M411.4,417c0,3.3-2.6,5.9-5.9,5.9H287c-3.3,0-5.9-2.7-5.9-5.9V380      c0-3.3,2.6-5.9,5.9-5.9h118.5c3.3,0,5.9,2.7,5.9,5.9V417z" fill="#0D71BA"/><g><path d="M403.9,417c0.2-1.9,2.8-1.6,0.3-1.6c-1.5,0-3.1,0-4.6,0c-5.4,0-10.7,0-16.1,0c-15.7,0-31.5,0-47.2,0       c-13.6,0-27.3,0-40.9,0c-2.7,0-5.5,0-8.2,0c1.3,0,1.4,3,1.4,0c0-3.1,0-6.1,0-9.2c0-7.5,0-15,0-22.5c0-1,0-1.9,0-2.9       c0-1.9,0.2,0.5-1.6,0.8c0.6-0.1,1.2,0,1.8,0c10.7,0,21.5,0,32.2,0c27.4,0,54.7,0,82.1,0c3.8,0,0.8,0.4,0.8-1.5       c0,3.6,0,7.1,0,10.7C403.9,399.5,403.9,408.3,403.9,417c0,9.7,15,9.7,15,0c0-12,0-23.9,0-35.9c0-8-5.5-14.6-13.8-14.6       c-3,0-6.1,0-9.1,0c-29.5,0-59.1,0-88.6,0c-5.1,0-10.3,0-15.4,0c-3.2,0-6.5-0.2-9.6,0.9c-8.7,3.1-8.8,11.5-8.8,19.1       c0,7.7,0,15.4,0,23.2c0,7.5-0.3,14.4,7,19.1c3.1,2,7.4,1.6,10.9,1.6c12.3,0,24.6,0,37,0c18.9,0,37.7,0,56.6,0       c5.8,0,11.6,0,17.4,0c8.7,0,15.3-3.9,16.4-13.4c0.5-4.1-3.8-7.5-7.5-7.5C407,409.5,404.4,413,403.9,417z"/><path d="M224.7,417c0.2-1.8,2.7-1.6,0.8-1.6c-1,0-1.9,0-2.9,0c-3.6,0-7.2,0-10.9,0c-7,0-13.9,0-20.9,0c-0.5,0-1,0-1.6,0       c1.5,0,1.6,2.6,1.6,1.1c0-2.5,0-5.1,0-7.6c0-7.7,0-15.4,0-23.1c0-1.9,0-3.8,0-5.7c0-0.9-2.5,1.5-1.3,1.5c0.9,0,1.9,0,2.8,0       c7.4,0,14.8,0,22.2,0c3.1,0,6.1,0,9.2,0c0.8,0,1.5,0,2.3,0c1.3,0-1.3-2.6-1.3-1.3c0,6.1,0,12.2,0,18.2       C224.7,404.7,224.7,410.8,224.7,417c0,9.7,15,9.7,15,0c0-12,0-23.9,0-35.9c0-8.6-6-14.6-14.6-14.6c-6.8,0-13.5,0-20.3,0       c-5.2,0-10.4,0-15.6,0c-6.9,0-12.5,5.3-13.3,12.1c-0.2,1.9-0.2,3.8-0.2,5.7c0,7.6,0,15.2,0,22.8c0,6-1.2,14.2,3.5,18.9       c4.2,4.2,8.9,4.4,14.3,4.4c5.7,0,11.4,0,17.1,0c4.8,0,9.6,0,14.4,0c8.3,0,13.6-5.3,14.6-13.4c0.5-4.1-3.8-7.5-7.5-7.5       C227.8,409.5,225.2,413,224.7,417z"/><path d="M127,417c0.2-1.8,2.7-1.6,0.8-1.6c-1,0-1.9,0-2.9,0c-3.6,0-7.2,0-10.9,0c-7,0-13.9,0-20.9,0c-0.5,0-1,0-1.6,0       c1.5,0,1.6,2.6,1.6,1.1c0-2.5,0-5.1,0-7.6c0-7.7,0-15.4,0-23.1c0-1.9,0-3.8,0-5.7c0-0.9-2.6,1.5-1.3,1.5c0.9,0,1.9,0,2.8,0       c7.4,0,14.8,0,22.2,0c3.1,0,6.1,0,9.2,0c0.8,0,1.5,0,2.3,0c1.3,0-1.3-2.6-1.3-1.3c0,6.1,0,12.2,0,18.2       C127,404.7,127,410.8,127,417c0,9.7,15,9.7,15,0c0-12,0-23.9,0-35.9c0-8.6-6-14.6-14.6-14.6c-6.8,0-13.5,0-20.3,0       c-5.2,0-10.4,0-15.6,0c-6.9,0-12.5,5.3-13.2,12.1c-0.2,1.9-0.2,3.8-0.2,5.7c0,7.6,0,15.2,0,22.8c0,6.1-1.2,14.2,3.5,18.9       c4.2,4.2,8.9,4.4,14.3,4.4c5.7,0,11.4,0,17.1,0c4.8,0,9.6,0,14.4,0c8.3,0,13.6-5.3,14.6-13.4c0.5-4.1-3.8-7.5-7.5-7.5       C130,409.5,127.4,413,127,417z"/><path d="M45.5,325.2c0,41,0,82,0,123c0,4.1,3.4,7.5,7.5,7.5c35.1,0,70.2,0,105.2,0c64,0,128,0,192,0c31.3,0,62.5,0,93.8,0       c4.1,0,7.5-3.4,7.5-7.5c0-41,0-82,0-123c0-4.1-3.4-7.5-7.5-7.5c-35.1,0-70.2,0-105.2,0c-64,0-128,0-192,0       c-31.3,0-62.5,0-93.8,0c-9.7,0-9.7,15,0,15c35.1,0,70.2,0,105.2,0c64,0,128,0,192,0c31.3,0,62.5,0,93.8,0c-2.5-2.5-5-5-7.5-7.5       c0,41,0,82,0,123c2.5-2.5,5-5,7.5-7.5c-35.1,0-70.2,0-105.2,0c-64,0-128,0-192,0c-31.3,0-62.5,0-93.8,0c2.5,2.5,5,5,7.5,7.5       c0-41,0-82,0-123C60.5,315.5,45.5,315.5,45.5,325.2z"/></g></g><g><rect fill="#69BD45" height="114" width="114" x="69.3" y="178.5"/><g><path d="M175.8,178.5c0,38,0,76,0,114c2.5-2.5,5-5,7.5-7.5c-38,0-76,0-114,0c2.5,2.5,5,5,7.5,7.5c0-38,0-76,0-114       c-2.5,2.5-5,5-7.5,7.5c38,0,76,0,114,0c9.7,0,9.7-15,0-15c-38,0-76,0-114,0c-4.1,0-7.5,3.4-7.5,7.5c0,38,0,76,0,114       c0,4.1,3.4,7.5,7.5,7.5c38,0,76,0,114,0c4.1,0,7.5-3.4,7.5-7.5c0-38,0-76,0-114C190.8,168.9,175.8,168.9,175.8,178.5z"/></g></g><g><path d="M134.5,380V417c0,3.3-2.6,5.9-5.9,5.9H91.5c-3.3,0-5.9-2.7-5.9-5.9V380c0-3.3,2.6-5.9,5.9-5.9h37.1      C131.8,374,134.5,376.7,134.5,380z" fill="#6FCCDD"/><g><path d="M127,380c0,12,0,23.9,0,35.9c0,2.5,2.6-0.4,0.8-0.4c-2.7,0-5.5,0-8.2,0c-7.7,0-15.3,0-23,0c-1.7,0-3.4,0-5,0       c1.5,0,1.6,2.6,1.6,1.1c0-1.1,0-2.1,0-3.2c0-7.5,0-15,0-22.5c0-2.9,0-5.8,0-8.8c0-0.6,0-1.3,0-1.9c0-0.2-2.7,1.5-1.1,1.5       c6.3,0,12.7,0,19,0c4.2,0,8.3,0,12.5,0c1.3,0,2.6,0,3.9,0C129.7,381.5,127.2,381.8,127,380c0.5,4.1,3.1,7.5,7.5,7.5       c3.7,0,8-3.4,7.5-7.5c-0.8-6.9-4.7-12.4-12-13.3c-1.9-0.2-3.8-0.2-5.7-0.2c-7.6,0-15.2,0-22.8,0c-6,0-14.2-1.2-18.9,3.5       c-5.3,5.3-4.4,12.1-4.4,18.9c0,7.7,0,15.3,0,23c0,1.7,0,3.4,0,5c0,6.9,5.3,12.5,12,13.3c5.2,0.6,10.7,0.2,15.9,0.2       c7,0,13.9,0,20.9,0c7.5,0,13.9-4.2,14.8-12c0.4-3.4,0.2-6.9,0.2-10.4c0-9.3,0-18.7,0-28C142,370.3,127,370.3,127,380z"/></g></g><g><path d="M232.2,380V417c0,3.3-2.6,5.9-5.9,5.9h-37.1c-3.3,0-5.9-2.7-5.9-5.9V380c0-3.3,2.6-5.9,5.9-5.9h37.1      C229.6,374,232.2,376.7,232.2,380z" fill="#6FCCDD"/><g><path d="M224.7,380c0,12,0,23.9,0,35.9c0,2.5,2.6-0.4,0.8-0.4c-2.7,0-5.5,0-8.2,0c-7.7,0-15.3,0-23,0c-1.7,0-3.4,0-5,0       c1.5,0,1.6,2.6,1.6,1.1c0-1.1,0-2.1,0-3.2c0-7.5,0-15,0-22.5c0-2.9,0-5.8,0-8.8c0-0.6,0-1.3,0-1.9c0-0.2-2.6,1.5-1,1.5       c6.3,0,12.7,0,19,0c4.2,0,8.3,0,12.5,0c1.3,0,2.6,0,3.9,0C227.5,381.5,224.9,381.8,224.7,380c0.5,4.1,3.1,7.5,7.5,7.5       c3.7,0,8-3.4,7.5-7.5c-0.8-6.9-4.7-12.4-12-13.3c-1.9-0.2-3.8-0.2-5.7-0.2c-7.6,0-15.2,0-22.8,0c-6.1,0-14.2-1.2-18.9,3.5       c-5.3,5.3-4.4,12.1-4.4,18.9c0,7.7,0,15.3,0,23c0,1.7,0,3.4,0,5c0,6.9,5.3,12.5,12.1,13.3c5.2,0.6,10.7,0.2,15.9,0.2       c7,0,13.9,0,20.9,0c7.5,0,13.9-4.2,14.8-12c0.4-3.4,0.2-6.9,0.2-10.4c0-9.3,0-18.7,0-28C239.7,370.3,224.7,370.3,224.7,380z"/></g></g><g><path d="M411.4,380V417c0,3.3-2.6,5.9-5.9,5.9H287c-3.3,0-5.9-2.7-5.9-5.9V380c0-3.3,2.6-5.9,5.9-5.9h118.5      C408.8,374,411.4,376.7,411.4,380z" fill="#6FCCDD"/><g><path d="M403.9,380c0,12,0,23.9,0,35.9c0,2.5,1.2-0.4,1.3-0.4c-1,0-2.1,0-3.1,0c-4.7,0-9.3,0-14,0c-29.7,0-59.5,0-89.2,0       c-3.6,0-7.2,0-10.9,0c-2.3,0,0.5-0.2,0.5,1.6c0-1.9,0-3.8,0-5.8c0-7.7,0-15.4,0-23.1c0-2.4,0-4.9,0-7.3c0-2-2.6,0.8-1.1,0.8       c25.5,0,51,0,76.5,0c9.9,0,19.7,0,29.6,0c3,0,5.9,0,8.9,0c0.8,0,1.6,0,2.3,0C406.6,381.5,404.1,381.7,403.9,380       c0.5,4.1,3.1,7.5,7.5,7.5c3.7,0,8-3.4,7.5-7.5c-1-8.4-6.5-13.4-14.9-13.4c-3.9,0-7.8,0-11.7,0c-14.7,0-29.4,0-44,0       c-15.1,0-30.2,0-45.3,0c-9.5,0-21.8-2.3-27.7,7c-2.9,4.6-1.6,13-1.6,18.1c0,7.4,0,14.8,0,22.2c0,8.2,3.8,16.5,13.4,16.5       c2.4,0,4.9,0,7.3,0c29.2,0,58.4,0,87.6,0c6.4,0,12.7,0,19.1,0c6.6,0,12.3-0.7,16.3-7c1.9-3,1.6-6.7,1.6-10.1       c0-4.3,0-8.6,0-12.8c0-6.8,0-13.7,0-20.5C418.9,370.3,403.9,370.3,403.9,380z"/></g></g><g><path d="M460.3,298.5v20.8c0,3.3-2.6,5.9-5.9,5.9H42.6c-3.3,0-5.9-2.6-5.9-5.9v-20.8c0-3.3,2.7-5.9,5.9-5.9      h411.8C457.7,292.6,460.3,295.2,460.3,298.5z" fill="#EC2127"/><g><path d="M452.8,298.5c0,6.1,0,12.2,0,18.2c0,0.8,0,1.7,0,2.5c0,0.9,2.4-1.5,1.5-1.5c-0.3,0-0.6,0-0.9,0c-4.2,0-8.4,0-12.6,0       c-20.2,0-40.3,0-60.5,0c-63.1,0-126.2,0-189.2,0c-46.9,0-93.8,0-140.7,0c-2.6,0-5.3,0-7.9,0c1.8,0,1.6,2.8,1.6,0.7       c0-1.3,0-2.6,0-3.9c0-4,0-8,0-12c0-1.2,0-2.3,0-3.5c0-1.5,0,1.1-1.6,1.1c0.2,0,0.5,0,0.7,0c12.3,0,24.5,0,36.8,0       c58.1,0,116.3,0,174.4,0c56.5,0,112.9,0,169.4,0c7.5,0,15,0,22.6,0c2,0,4,0,6,0C455.6,300.1,453,300.5,452.8,298.5       c0.5,4.1,3.1,7.5,7.5,7.5c3.7,0,8-3.4,7.5-7.5c-0.9-7.6-5.8-13.4-13.9-13.4c-1.3,0-2.5,0-3.8,0c-6,0-12,0-17.9,0       c-22.7,0-45.4,0-68.1,0c-64,0-127.9,0-191.9,0c-42.2,0-84.4,0-126.6,0c-1,0-1.9,0-2.9,0c-8.8,0-13.5,7.3-13.5,15.3       c0,11.4-3.4,32.3,13.8,32.3c11.6,0,23.1,0,34.7,0c57.6,0,115.2,0,172.8,0c57,0,114.1,0,171.1,0c9.9,0,19.8,0,29.8,0       c4.9,0,9.2-0.6,12.9-4.4c4.3-4.3,3.5-11,3.5-16.5c0-4.4,0-8.9,0-13.3C467.8,288.8,452.8,288.8,452.8,298.5z"/></g></g><g><path d="M199.6,70.4v20.8c0,3.3-2.7,5.9-5.9,5.9H58.9c-3.3,0-5.9-2.6-5.9-5.9V70.4c0-3.3,2.6-5.9,5.9-5.9h134.8      C197,64.5,199.6,67.1,199.6,70.4z" fill="#F79420"/><g><path d="M192.1,70.4c0,6.1,0,12.2,0,18.2c0,0.8,0,1.7,0,2.5c0,0.8,2.5-1.5,1.4-1.5c-0.8,0-1.7,0-2.5,0c-10.6,0-21.1,0-31.7,0       c-29.7,0-59.5,0-89.2,0c-3.4,0-6.7,0-10.1,0c-2.3,0,0.2-0.3,0.5,1.6c-0.3-2.4,0-5.1,0-7.5c0-3.6,0-7.2,0-10.7       c0-0.8,0-1.7,0-2.5c0-0.3-2.5,1.5-1.4,1.5c2.6,0,5.1,0,7.7,0c29,0,58.1,0,87.1,0c9.5,0,19,0,28.6,0c2.7,0,5.5,0,8.2,0       c0.7,0,1.5,0,2.2,0C194.8,72,192.3,72.2,192.1,70.4c0.5,4.1,3.1,7.5,7.5,7.5c3.7,0,8-3.4,7.5-7.5c-1-8.2-6.4-13.4-14.8-13.4       c-3.5,0-7,0-10.4,0c-13.8,0-27.5,0-41.3,0c-26.5,0-52.9,0-79.4,0c-5.9,0-10.8,1.7-14.2,7c-3.4,5.3-1.6,15.6-1.6,21.5       c0,2.3-0.1,4.7,0.2,7c0.8,6.7,6.3,12.1,13.3,12.1c2,0,4,0,6.1,0c28.4,0,56.9,0,85.3,0c13.7,0,27.4,0,41.1,0       c8,0,15.8-4.4,15.8-13.5c0-6.9,0-13.8,0-20.7C207.1,60.7,192.1,60.7,192.1,70.4z"/></g></g><g><path d="M199.6,151.9v20.8c0,3.3-2.7,5.9-5.9,5.9H58.9c-3.3,0-5.9-2.6-5.9-5.9v-20.8c0-3.3,2.6-5.9,5.9-5.9      h134.8C197,146,199.6,148.6,199.6,151.9z" fill="#F79420"/><g><path d="M192.1,151.9c0,6.1,0,12.2,0,18.2c0,0.8,0,1.7,0,2.5c0,0.8,2.5-1.5,1.4-1.5c-0.8,0-1.7,0-2.5,0c-10.6,0-21.1,0-31.7,0       c-29.7,0-59.5,0-89.2,0c-3.4,0-6.7,0-10.1,0c-2.3,0,0.2-0.3,0.5,1.6c-0.3-2.4,0-5.1,0-7.5c0-3.6,0-7.2,0-10.7       c0-0.8,0-1.7,0-2.5c0-0.3-2.5,1.5-1.4,1.5c2.6,0,5.1,0,7.7,0c29,0,58.1,0,87.1,0c9.5,0,19,0,28.6,0c2.7,0,5.5,0,8.2,0       c0.7,0,1.5,0,2.2,0C194.8,153.5,192.3,153.6,192.1,151.9c0.5,4.1,3.1,7.5,7.5,7.5c3.7,0,8-3.4,7.5-7.5       c-0.9-8.2-6.4-13.4-14.8-13.4c-3.5,0-7,0-10.4,0c-13.8,0-27.5,0-41.3,0c-26.5,0-52.9,0-79.4,0c-5.9,0-10.8,1.7-14.2,7       c-3.4,5.3-1.6,15.6-1.6,21.5c0,2.3-0.1,4.7,0.2,7c0.8,6.7,6.3,12,13.3,12c2,0,4,0,6.1,0c28.4,0,56.9,0,85.3,0       c13.7,0,27.4,0,41.1,0c8,0,15.8-4.4,15.8-13.5c0-6.9,0-13.8,0-20.7C207.1,142.2,192.1,142.2,192.1,151.9z"/></g></g><g><g><path d="M405.5,381.6c9.7,0,9.7-15,0-15S395.9,381.6,405.5,381.6L405.5,381.6z"/></g></g></g><g><path d="M140.7,38.3v26.2h-28.8V38.3c0-8,6.4-14.4,14.4-14.4c4,0,7.6,1.6,10.2,4.2     C139.1,30.7,140.7,34.3,140.7,38.3z" fill="#FBB03B"/><g><path d="M133.2,38.3c0,8.7,0,17.5,0,26.2c2.5-2.5,5-5,7.5-7.5c-9.6,0-19.2,0-28.8,0c2.5,2.5,5,5,7.5,7.5c0-7.4,0-14.7,0-22.1      c0-2.9-0.4-6.1,1.6-8.5C125.2,28.9,132.9,32.1,133.2,38.3c0.5,9.6,15.5,9.7,15,0c-0.6-11.2-8.7-21.2-20.4-21.8      c-10.8-0.5-20.3,6.6-22.8,17.1c-1.2,5-0.5,10.8-0.5,15.9c0,5,0,10,0,15.1c0,4.1,3.4,7.5,7.5,7.5c9.6,0,19.2,0,28.8,0      c4.1,0,7.5-3.4,7.5-7.5c0-8.7,0-17.5,0-26.2C148.2,28.6,133.2,28.6,133.2,38.3z"/></g></g></g><g><path d="M475.2,94.2c-0.3,2.3-1.5,4.5-3.3,5.9l-191.1,150c-3,2.4-7.2,2.5-10.3,0.4l-38.8-25.8    c-2.2-1.5-3.6-3.8-3.9-6.4c-0.3-2.6,0.6-5.2,2.5-7.1l15.8-16.2c1.7-1.7,4-2.7,6.4-2.7l28.9,0.3c2.1,0,4.1-0.7,5.7-2l30-24.6    c2.4-1.9,3.5-5,3.2-8c-0.4-3-2.4-5.6-5.1-6.9L261,127c-2.6-1.2-4.5-3.6-5.1-6.5c-0.5-2.8,0.4-5.8,2.4-7.8l22.5-22.5    c2.3-2.3,5.7-3.2,8.8-2.2l78.5,23.7c2.6,0.8,5.5,0.3,7.7-1.3c15.8-11.9,32.3-22.8,49.4-32.8c16.2-9.7,37.2-5.3,48.1,10.1    C474.8,89.5,475.5,91.9,475.2,94.2z" fill="#C7B299"/><g><path d="M468,92.2c-0.8,3.8-7.2,7.2-10.1,9.4c-8.2,6.4-16.4,12.9-24.6,19.3c-24.5,19.3-49.1,38.5-73.6,57.8     c-22.3,17.5-44.5,34.9-66.8,52.4c-5.4,4.2-10.7,8.4-16.1,12.6c-1.6,1.3-1.2,1.2-3,0c-4.7-3.1-9.4-6.3-14.1-9.4     c-6.4-4.3-12.8-8.5-19.2-12.8c-1.6-1.1-3.2-2.1-4.8-3.2c-0.1-0.1-0.2-0.2-0.3-0.2c1.1,0.7-0.1-0.2-0.2-0.7     c-0.3-0.8,0.8-1.6,1.2-2c4.8-4.9,9.5-9.7,14.3-14.6c2.5-2.6,9.9-1,13.2-1c5.8,0.1,11.6,0.1,17.4,0.2c7.2,0.1,12.5-5.4,17.7-9.7     c6-4.9,11.9-9.8,17.9-14.7c5.9-4.8,11.2-9.2,10.8-17.7c-0.4-7.8-6.1-12.1-12.5-15c-6.2-2.8-12.3-5.5-18.5-8.3     c-10.7-4.8-21.4-9.6-32.1-14.3c-2.6-1.1-1.1-2.5,0.2-3.8c2.4-2.4,4.8-4.8,7.2-7.2c4.6-4.6,9.2-9.2,13.8-13.8     c1.4-1.4,5.2,0.5,6.8,1c6,1.8,11.9,3.6,17.9,5.4c18.5,5.6,37,11.2,55.5,16.7c10.6,3.2,19.2-6.3,27-11.8     c10.1-7.1,20.5-13.8,31.1-20.1c7.7-4.6,15.1-8.1,24.4-6.6c4.4,0.7,8.3,2.5,12,5c2.7,1.8,7.3,5.4,7.2,8.9c-0.3,9.7,14.7,9.6,15,0     c0.5-12.9-13.1-22.1-23.6-26.5c-11.3-4.7-24.3-3.1-35.1,2c-13.5,6.4-26.2,15.8-38.4,24.3c-3,2.1-6,4.3-9,6.5     c-1.4,1.1-4.5,4.4-6.4,3.8c-0.9-0.3-1.9-0.6-2.8-0.8c-24.8-7.5-49.6-15-74.5-22.5c-6.6-2-13.1-0.5-18,4.5     c-4.9,4.9-9.8,9.8-14.7,14.7c-5,5-11.3,9.8-11.8,17.4c-0.5,8.5,4.8,14,12,17.2c13.3,5.9,26.6,11.9,39.9,17.8     c3.7,1.7,7.4,3.3,11.1,5c2.3,1,1.4,2.4-0.1,3.6c-2,1.7-4,3.3-6.1,5c-6,4.9-11.9,9.8-17.9,14.7c-1.7,1.4-3.4,2.7-5,4.1     c-0.3,0.3-2,0.1-3.3,0.1c-7.3-0.1-14.6-0.2-21.9-0.2c-6.8-0.1-12.4,1-17.5,6.1c-4.7,4.8-9.5,9.7-14.2,14.5     c-7.7,7.9-6,19.9,2.9,25.9c11.1,7.4,22.2,14.8,33.2,22.2c5.9,3.9,11.2,7.2,18.8,5.1c2.9-0.8,5.2-2.9,7.6-4.7     c5.7-4.5,11.4-8.9,17.1-13.4c22.6-17.7,45.1-35.4,67.7-53.1c24.4-19.1,48.7-38.2,73.1-57.4c7.9-6.2,15.9-12.5,23.8-18.7     c5.3-4.2,10.2-7.2,12.6-13.9c0.1-0.5,0.2-0.9,0.3-1.4C484.3,86.8,469.9,82.7,468,92.2z"/></g></g></g></svg>