<?xml version="1.0" ?><svg style="enable-background:new 0 0 32 32;" version="1.1" viewBox="0 0 32 32" xml:space="preserve" xmlns="http://www.w3.org/2000/svg" xmlns:xlink="http://www.w3.org/1999/xlink"><style type="text/css">
	.st0{fill:#B9F3F8;}
	.st1{fill:#55C1FA;}
	.st2{fill:#FBC34E;}
	.st3{opacity:0.05;}
	.st4{fill:#FFFFFF;}
	.st5{fill:#7A442A;}
	.st6{fill:#C77C58;}
	.st7{fill:#E4EDF2;}
	.st8{fill:#F25949;}
	.st9{fill:#FA9B55;}
	.st10{fill:#E5A533;}
	.st11{fill:#6FA7AB;}
	.st12{fill:#20A56C;}
	.st13{fill:#F2C09E;}
	.st14{fill:#F4E8D0;}
	.st15{fill:#F2AB38;}
	.st16{fill:#393B3D;}
	.st17{fill:#ACE4E5;}
	.st18{fill:#659899;}
	.st19{fill:#E3FAFC;}
	.st20{fill:#DDF1F2;}
	.st21{fill:#16F293;}
	.st22{fill:#5C3320;}
	.st23{fill:#AD410D;}
	.st24{fill:#8B9CA5;}
	.st25{fill:#B26C50;}
	.st26{fill:#DAE1E5;}
	.st27{fill:#425158;}
	.st28{fill:#829299;}
	.st29{fill:#A5795C;}
	.st30{fill:#7A7468;}
	.st31{fill:#7B3ABF;}
	.st32{fill:#B564FF;}
	.st33{fill:#2B617D;}
</style><g id="Magnifier"/><g id="Gear"/><g id="Home"/><g id="Shield"/><g id="Star"/><g id="Flash"/><g id="Heart"/><g id="Hearts"/><g id="Shopping_Bag"/><g id="Token"/><g id="Warning"/><g id="Warning_B"/><g id="Chat"/><g id="Diamond"/><g id="Hanger"/><g id="Warning_C"/><g id="Potion"/><g id="Hourglass"/><g id="Trophy"/><g id="Bomb"/><g id="Gem"/><g id="Spell_Book"/><g id="User"/><g id="Users"/><g id="Treasure_Chest"/><g id="Treasure_Chest_Open"/><g id="Sack"/><g id="Fishing_Pin"/><g id="Sword"/><g id="Sword_And_Shield"/><g id="Backpack"><g><path class="st2" d="M13.584,4.952C13.584,4.427,14.011,4,14.536,4h2.928c0.525,0,0.952,0.427,0.952,0.952v0.951h2V4.952    C20.416,3.324,19.091,2,17.464,2h-2.928c-1.627,0-2.952,1.324-2.952,2.952v0.951h2V4.952z"/><path class="st6" d="M25.878,15.354l-0.165-0.629c-0.474,0.267-1.011,0.427-1.578,0.427h-0.377h-4.877l-2.1,2.625    c-0.189,0.237-0.477,0.375-0.781,0.375s-0.591-0.138-0.781-0.375l-2.1-2.625H8.243H7.865c-0.568,0-1.104-0.16-1.578-0.427    l-0.165,0.629C5.002,19.611,4.086,23.767,5.146,27.8C5.487,29.095,6.661,30,8.001,30h15.998c1.34,0,2.514-0.905,2.855-2.201    C27.914,23.767,26.998,19.611,25.878,15.354z M10,22.076c0-1.654,1.346-3,3-3h6c1.654,0,3,1.346,3,3v2c0,1.654-1.346,3-3,3h-6    c-1.654,0-3-1.346-3-3V22.076z"/><path class="st25" d="M7.865,15.152h0.377h4.877l-0.3-0.375c-0.292-0.365-0.292-0.885,0-1.25l2.4-3    c0.379-0.475,1.183-0.475,1.562,0l2.4,3c0.292,0.365,0.292,0.885,0,1.25l-0.3,0.375h4.877h0.377c0.568,0,1.104-0.16,1.578-0.427    c0.309-0.174,0.597-0.385,0.832-0.657c0.548-0.636,0.792-1.468,0.671-2.282c-0.007-0.201-1.571-4.11-1.626-4.312    c-0.2-0.903-1.054-1.57-2.04-1.57h-3.135h-2h-4.831h-2H8.45c-0.986,0-1.84,0.667-2.04,1.57c-0.055,0.202-1.619,4.112-1.626,4.312    c-0.122,0.814,0.123,1.646,0.671,2.282c0.234,0.272,0.522,0.483,0.832,0.657C6.761,14.993,7.298,15.152,7.865,15.152z"/><path class="st0" d="M19.181,13.527l-2.4-3c-0.379-0.475-1.183-0.475-1.562,0l-2.4,3c-0.292,0.365-0.292,0.885,0,1.25l0.3,0.375    l2.1,2.625c0.189,0.237,0.477,0.375,0.781,0.375s0.591-0.138,0.781-0.375l2.1-2.625l0.3-0.375    C19.473,14.412,19.473,13.893,19.181,13.527z"/><path class="st23" d="M13,27.076h6c1.654,0,3-1.346,3-3v-2c0-1.654-1.346-3-3-3h-6c-1.654,0-3,1.346-3,3v2    C10,25.73,11.346,27.076,13,27.076z"/></g></g><g id="Key"/><g id="Meat"/><g id="Skull"/><g id="Store"/><g id="Helmet"/><g id="Anvil"/><g id="Axe"/><g id="Spear"/><g id="Food"/><g id="Bow"/><g id="Scroll"/><g id="Armor"/><g id="Hat"/><g id="Wand"/><g id="Map"/><g id="Mushroom"/><g id="Feather"/><g id="Wings"/><g id="Fish"/></svg>