<?xml version="1.0" ?><svg id="Layer_1" style="enable-background:new 0 0 512 512;" version="1.1" viewBox="0 0 512 512" xml:space="preserve" xmlns="http://www.w3.org/2000/svg" xmlns:xlink="http://www.w3.org/1999/xlink"><g><polygon points="65.329,247.203 189.159,247.203 223.174,305.631 189.159,364.042 65.329,364.042  " style="fill:#3671A6;"/><path d="M139.618,183.069c0.675,0.235,1.373,0.432,2.128,0.432c0.482,0,0.906-0.176,1.359-0.276   c6.285,0.292,12.608,0.483,18.94,0.483c35.732,0,71.648-4.711,96.709-13.846v34.626H65.329v-34.627   C85.129,177.081,111.694,181.521,139.618,183.069z" style="fill:#FFFFFF;"/><path d="M65.329,377.19h127.606c2.341,0,4.498-1.251,5.677-3.27l37.84-64.985   c1.187-2.036,1.187-4.569,0-6.606l-37.84-65.002c-1.179-2.021-3.335-3.27-5.677-3.27H65.329v-16.419h193.424v175.989H65.329V377.19   z" style="fill:#FFFFFF;"/><path d="M162.045,468.744c-56.993,0-96.717-18.391-96.717-34.906v-27.066h193.424v27.066   C258.753,450.352,219.037,468.744,162.045,468.744z" style="fill:#FFFFFF;"/><path d="M90.774,112.107v51.394c-10.044-2.252-18.558-4.895-25.446-7.73v-50.736   C72.917,107.804,81.492,110.163,90.774,112.107z" style="fill:#AAB2BD;"/><path d="M258.753,105.038v50.735c-6.499,2.676-14.467,5.175-23.786,7.342v-51.379   C243.606,109.862,251.626,107.636,258.753,105.038z" style="fill:#AAB2BD;"/><path d="M221.835,165.801c-9.286,1.616-19.636,2.871-30.857,3.694v-51.688   c10.644-0.769,21.039-1.934,30.857-3.548V165.801L221.835,165.801z" style="fill:#AAB2BD;"/><path d="M177.846,170.23c-5.123,0.197-10.355,0.33-15.801,0.33c-4.702,0-9.272-0.084-13.732-0.232v-51.697   c4.568,0.153,9.149,0.252,13.732,0.252c5.279,0,10.548-0.141,15.801-0.344V170.23z" style="fill:#AAB2BD;"/><path d="M135.181,169.665c-11.383-0.769-21.832-2.008-31.274-3.59v-51.545   c9.968,1.582,20.503,2.715,31.274,3.434V169.665z" style="fill:#AAB2BD;"/><path d="M271.885,148.849V99.238c2.654-1.408,5.092-2.884,7.279-4.441v44.175   C279.164,142.08,276.609,145.474,271.885,148.849z" style="fill:#AAB2BD;"/><path d="M44.917,138.974V94.797c2.187,1.556,4.626,3.034,7.279,4.442v49.612   C47.472,145.474,44.917,142.08,44.917,138.974z" style="fill:#AAB2BD;"/><ellipse cx="162.52" cy="71.388" rx="124.299" ry="37.111" style="fill:#838F9B;"/><g><g><path d="M292.297,138.974V74.148c0-58.717-260.51-58.717-260.51,0v64.825c0,10.026,7.767,18.38,20.411,25.088v46.999v29.566     v129.987v29.583v33.638c0,27.386,47.219,48.054,109.848,48.054c62.621,0,109.84-20.668,109.84-48.054v-33.638V211.062v-46.998     C284.529,157.355,292.297,149.001,292.297,138.974z M90.774,112.107v51.394c-10.044-2.252-18.558-4.895-25.446-7.73v-50.736     C72.917,107.804,81.492,110.163,90.774,112.107z M258.753,105.038v50.735c-6.499,2.676-14.467,5.175-23.786,7.342v-51.379     C243.606,109.862,251.626,107.636,258.753,105.038z M139.618,183.069c0.675,0.235,1.373,0.432,2.128,0.432     c0.482,0,0.906-0.176,1.359-0.276c6.285,0.292,12.608,0.483,18.94,0.483c35.732,0,71.648-4.711,96.709-13.846v34.626H65.329     v-34.627C85.129,177.081,111.694,181.521,139.618,183.069z M221.835,165.801c-9.286,1.616-19.636,2.871-30.857,3.694v-51.688     c10.644-0.769,21.039-1.934,30.857-3.548V165.801L221.835,165.801z M177.846,170.23c-5.123,0.197-10.355,0.33-15.801,0.33     c-4.702,0-9.272-0.084-13.732-0.232v-51.697c4.568,0.153,9.149,0.252,13.732,0.252c5.279,0,10.548-0.141,15.801-0.344V170.23z      M135.181,169.665c-11.383-0.769-21.832-2.008-31.274-3.59v-51.545c9.968,1.582,20.503,2.715,31.274,3.434V169.665z      M65.329,247.203h123.83l34.016,58.428l-34.016,58.411H65.329V247.203z M65.329,377.19h127.606c2.341,0,4.498-1.251,5.677-3.27     l37.84-64.985c1.187-2.036,1.187-4.569,0-6.606l-37.84-65.002c-1.179-2.021-3.335-3.27-5.677-3.27H65.329v-16.419h193.424     v175.989H65.329V377.19z M271.885,148.849V99.238c2.654-1.408,5.092-2.884,7.279-4.441v44.175     C279.164,142.08,276.609,145.474,271.885,148.849z M137.849,43.297c-0.163,0.148-0.369,0.219-0.52,0.387     c-2.37,2.653-2.169,6.665,0.373,9.107c-27.686,1.816-60.789,7.029-60.789,21.615c0,17.59,48.165,21.565,76.882,22.367     c0.065,0.016,0.128,0.016,0.184,0.016c3.544,0,6.461-2.822,6.566-6.382c0.104-3.64-2.758-6.654-6.382-6.75     c-35.764-1.011-55.342-5.965-62.1-9.252c5.565-2.707,20.002-6.51,44.84-8.346c-2.254,2.539-2.283,6.374,0.102,8.858     c1.291,1.347,3.015,2.036,4.739,2.036c1.636,0,3.27-0.609,4.546-1.828l12.242-11.736c0.069-0.068,0.094-0.165,0.161-0.234     c0.213-0.22,0.333-0.505,0.514-0.753c0.317-0.445,0.668-0.86,0.867-1.367c0.167-0.417,0.177-0.888,0.257-1.342     c0.066-0.391,0.23-0.76,0.223-1.161c0-0.019-0.012-0.037-0.013-0.056c0-0.026,0.015-0.047,0.013-0.074     c-0.055-1.86-0.9-3.488-2.179-4.648c-0.001-0.001,0-0.001-0.001-0.002l-11.769-10.566c-0.147-0.131-0.335-0.172-0.49-0.287     c5.164-0.201,10.438-0.338,15.931-0.338c72.561,0,117.12,18.391,117.12,31.587c0,8.464-18.406,19.041-50.697,25.556     c-0.025,0-0.044-0.015-0.068-0.015c-0.889,0-1.736,0.186-2.509,0.508c-17.6,3.357-39.037,5.536-63.847,5.536     c-72.569,0-117.128-18.391-117.128-31.587C44.917,62.493,79.723,46.805,137.849,43.297z M44.917,138.974V94.797     c2.187,1.556,4.626,3.034,7.279,4.442v49.612C47.472,145.474,44.917,142.08,44.917,138.974z M162.045,468.744     c-56.993,0-96.717-18.391-96.717-34.906v-27.066h193.424v27.066C258.753,450.352,219.037,468.744,162.045,468.744z"/><path d="M186.288,70.172c-2.654-2.454-6.822-2.277-9.275,0.369l-10.718,11.625c-1.242,1.347-1.86,3.143-1.724,4.971     c0.144,1.812,1.042,3.496,2.469,4.634l13.293,10.534c1.211,0.962,2.645,1.427,4.072,1.427c1.94,0,3.856-0.866,5.155-2.501     c2.191-2.761,1.753-6.725-0.885-9.005c21.573-1.799,57.815-6.752,60.908-19.888c0.657-2.838-0.016-5.74-1.908-8.21     c-10.165-13.196-64.104-15.376-74.814-15.665c-0.065-0.016-0.128-0.016-0.184-0.016c-3.544,0-6.461,2.822-6.566,6.382     c-0.104,3.64,2.758,6.654,6.382,6.75c32.741,0.929,53.425,5.356,61.401,8.659c-7.854,3.415-26.794,7.497-47.156,9.1     C189.096,76.657,188.921,72.593,186.288,70.172z"/><path d="M289.739,331.22c0,0.003,0.002,0.004,0.002,0.007c0,0.003-0.002,0.006-0.002,0.009     c0.345,21.373,41.816,32.212,83.841,32.212c1.259,0,2.525,0,3.785-0.016c22.199-0.353,43.114-3.624,58.893-9.188     c23.053-8.136,27.775-18.478,27.664-25.741c0-0.004,0.002-0.006,0.002-0.01v-0.013c0-0.001,0-0.002,0-0.003v-0.001l-0.537-34.215     c-0.345-22.031-44.542-32.806-87.618-32.212c-22.199,0.353-43.114,3.624-58.893,9.188c-23.081,8.145-27.787,18.503-27.666,25.751     L289.739,331.22z M431.888,341.851c-14.47,5.116-33.912,8.113-54.731,8.434c-47.612,1.187-74.173-12.33-74.285-19.273v-0.001     l-0.244-15.713c14.391,8.491,38.578,13.126,63.812,13.811c0.098,0.004,0.202,0.044,0.301,0.044c0.04,0,0.069-0.036,0.109-0.037     c2.062,0.052,4.124,0.099,6.192,0.099c1.259,0,2.525,0,3.785-0.016c22.199-0.353,43.114-3.624,58.893-9.188     c6.217-2.195,11.011-4.553,14.826-6.966l0.245,15.639c0,0.003,0.002,0.004,0.002,0.007c0,0.003-0.002,0.006-0.002,0.009     C450.84,331.814,444.947,337.249,431.888,341.851z M450.254,294.455v0.016c0.048,3.111-5.844,8.545-18.904,13.148     c-14.47,5.116-33.912,8.113-54.731,8.434c-0.415,0.01-0.763-0.022-1.174-0.014l11.644-40.624     C427.735,276.694,450.157,288.1,450.254,294.455z M321.245,283.633c13.875-4.905,32.365-7.796,52.214-8.313l-11.627,40.56     c-38.284-1.574-59.399-12.917-59.492-19.099C302.294,293.669,308.186,288.234,321.245,283.633z"/><path d="M479.797,408.167c-3.239-23.024-24.532-39.074-47.701-35.916l-119.421,16.868c-11.167,1.572-21.045,7.407-27.828,16.419     c-6.783,8.995-9.652,20.107-8.073,31.266c2.975,21.068,21.101,36.317,41.784,36.317c1.956,0,3.928-0.128,5.908-0.401     l119.429-16.852c0.008,0,0.008,0,0.008,0C466.946,452.597,483.044,431.208,479.797,408.167z M322.64,459.699     c-15.881,2.228-30.617-8.867-32.862-24.724c-1.082-7.696,0.889-15.345,5.564-21.549c4.666-6.206,11.472-10.213,19.168-11.288     l53.213-7.517l8.12,57.57L322.64,459.699z M442.061,442.848h0.008l-53.221,7.51l-8.12-57.573l53.204-7.516     c1.371-0.192,2.726-0.288,4.072-0.288c14.254,0,26.744,10.519,28.788,25.014C469.029,425.869,457.935,440.604,442.061,442.848z"/><path d="M165.405,282.204H94.07c-3.624,0-6.566,2.95-6.566,6.574s2.942,6.574,6.566,6.574h71.335c3.624,0,6.566-2.95,6.566-6.574     C171.97,285.155,169.028,282.204,165.405,282.204z"/><path d="M138.035,316.005H94.07c-3.624,0-6.566,2.95-6.566,6.574c0,3.624,2.942,6.574,6.566,6.574h43.965     c3.624,0,6.566-2.95,6.566-6.574C144.6,318.955,141.657,316.005,138.035,316.005z"/></g></g><path d="M322.64,459.699c-15.881,2.228-30.617-8.867-32.862-24.724c-1.082-7.696,0.889-15.345,5.564-21.549   c4.666-6.206,11.472-10.213,19.168-11.288l53.213-7.517l8.12,57.57L322.64,459.699z" style="fill:#D970A2;"/><path d="M442.061,442.848h0.008l-53.221,7.51l-8.12-57.573l53.204-7.516   c1.371-0.192,2.726-0.288,4.072-0.288c14.254,0,26.744,10.519,28.788,25.014C469.029,425.869,457.935,440.604,442.061,442.848z" style="fill:#FFFFFF;"/><path d="M450.254,294.455v0.016c0.048,3.111-5.844,8.545-18.904,13.148   c-14.47,5.116-33.912,8.113-54.731,8.434c-0.415,0.01-0.763-0.022-1.174-0.014l11.644-40.624   C427.735,276.694,450.157,288.1,450.254,294.455z" style="fill:#F9D56F;"/><path d="M321.245,283.633c13.875-4.905,32.365-7.796,52.214-8.313l-11.627,40.56   c-38.284-1.574-59.399-12.917-59.492-19.099C302.294,293.669,308.186,288.234,321.245,283.633z" style="fill:#F9D56F;"/><path d="M431.888,341.851c-14.47,5.116-33.912,8.113-54.731,8.434c-47.612,1.187-74.173-12.33-74.285-19.273   v-0.001l-0.244-15.713c14.391,8.491,38.578,13.126,63.812,13.811c0.098,0.004,0.202,0.044,0.301,0.044   c0.04,0,0.069-0.036,0.109-0.037c2.062,0.052,4.124,0.099,6.192,0.099c1.259,0,2.525,0,3.785-0.016   c22.199-0.353,43.114-3.624,58.893-9.188c6.217-2.195,11.011-4.553,14.826-6.966l0.245,15.639c0,0.003,0.002,0.004,0.002,0.007   c0,0.003-0.002,0.006-0.002,0.009C450.84,331.814,444.947,337.249,431.888,341.851z" style="fill:#F9D56F;"/></g></svg>