<?xml version="1.0" ?><svg viewBox="0 0 25 25" xmlns="http://www.w3.org/2000/svg"><defs><style>.cls-1{fill:#ffbd1b;}.cls-2{fill:#0070d4;}</style></defs><title/><g data-name="Layer 12" id="Layer_12"><path class="cls-1" d="M12.5,20A5.5,5.5,0,1,1,18,14.5,5.51,5.51,0,0,1,12.5,20Zm0-10A4.5,4.5,0,1,0,17,14.5,4.5,4.5,0,0,0,12.5,10Z"/><path class="cls-2" d="M2.88,5.5,3,9.5,2.5,9h2L4,9.5l.11-4a.39.39,0,0,1,.78,0L5,9.5a.49.49,0,0,1-.47.5h-2A.48.48,0,0,1,2,9.52v0l.13-4a.38.38,0,0,1,.75,0Z"/><path class="cls-2" d="M6.91,5.5,7,9.5a.49.49,0,0,1-.48.5h-2a.5.5,0,0,1,0-1h2L6,9.5l.09-4a.41.41,0,0,1,.81,0Z"/><path class="cls-2" d="M3.79,19.5,4,9.5a.5.5,0,0,1,1,0l.21,10a.71.71,0,1,1-1.42,0S3.79,19.51,3.79,19.5Z"/><path class="cls-2" d="M19.79,19.5,20,12a.5.5,0,0,1,1,0l.21,7.5a.71.71,0,1,1-1.42,0S19.79,19.51,19.79,19.5Z"/><rect class="cls-2" height="2" rx="0.5" ry="0.5" width="5" x="2" y="9"/><path class="cls-2" d="M20.5,12A2.2,2.2,0,0,1,18,9.5C18,7.67,19,5,20.5,5S23,7.67,23,9.5A2.2,2.2,0,0,1,20.5,12Zm0-6C19.89,6,19,7.84,19,9.5c0,1.26.53,1.5,1.5,1.5S22,10.76,22,9.5C22,7.84,21.11,6,20.5,6Z"/><path class="cls-1" d="M12.5,18A3.5,3.5,0,1,1,16,14.5,3.5,3.5,0,0,1,12.5,18Zm0-6A2.5,2.5,0,1,0,15,14.5,2.5,2.5,0,0,0,12.5,12Z"/></g></svg>